<?xml version="1.0" encoding="UTF-8" standalone="no"?>
<!-- Created with Inkscape (http://www.inkscape.org/) -->

<svg
   width="26.811121mm"
   height="32.642929mm"
   viewBox="0 0 26.811121 32.642929"
   version="1.1"
   id="svg1"
   xml:space="preserve"
   xmlns:inkscape="http://www.inkscape.org/namespaces/inkscape"
   xmlns:sodipodi="http://sodipodi.sourceforge.net/DTD/sodipodi-0.dtd"
   xmlns="http://www.w3.org/2000/svg"
   xmlns:svg="http://www.w3.org/2000/svg"><sodipodi:namedview
     id="namedview1"
     pagecolor="#ffffff"
     bordercolor="#000000"
     borderopacity="0.25"
     inkscape:showpageshadow="2"
     inkscape:pageopacity="0.0"
     inkscape:pagecheckerboard="0"
     inkscape:deskcolor="#d1d1d1"
     inkscape:document-units="mm" /><defs
     id="defs1" /><g
     inkscape:label="Camada 1"
     inkscape:groupmode="layer"
     id="layer1"
     transform="translate(-141.21122,-78.314298)"><path
       style="fill:#000000"
       d="m 147.79077,105.4964 -6.57955,-5.564413 v -7.24135 -7.24136 l 4.85069,-1.22883 4.8507,-1.22883 0.10502,-2.41253 c 0.074,-1.69909 0.23046,-2.36526 0.52917,-2.25267 0.23328,0.0879 1.8132,0.61097 3.51094,1.16233 l 3.08681,1.00247 v 1.28796 1.28797 l 4.93889,1.17166 4.93889,1.17167 -0.0192,7.25724 -0.0192,7.25724 -6.49309,5.463353 c -3.57119,3.00484 -6.63426,5.51041 -6.80681,5.56793 -0.17255,0.0575 -3.27452,-2.39941 -6.89327,-5.45984 z m 12.93885,-1.55762 c 3.23488,-2.74011 5.8816,-5.200733 5.8816,-5.468063 0,-0.26732 -0.18476,-0.48604 -0.41057,-0.48604 -0.22581,0 -2.84274,1.82562 -5.8154,4.056943 -2.97266,2.23132 -5.48666,4.05695 -5.58666,4.05695 -0.1,0 -0.18182,-0.37921 -0.18182,-0.84269 0,-0.67934 1.1625,-1.71268 5.99722,-5.330923 3.29848,-2.46854 5.99723,-4.7087 5.99723,-4.97815 0,-0.26945 -0.16048,-0.48991 -0.35662,-0.48991 -0.19614,0 -2.81378,1.5875 -5.81699,3.52778 -3.00321,1.94028 -5.54149,3.527783 -5.64061,3.527783 -0.0991,0 -0.18023,-0.36758 -0.18023,-0.81683 0,-0.66288 0.91418,-1.405443 4.8507,-3.940033 2.66788,-1.71776 5.36663,-3.50139 5.99722,-3.96363 0.63059,-0.46223 1.14653,-1.07047 1.14653,-1.35163 0,-0.28117 -0.16689,-0.51122 -0.37085,-0.51122 -0.20397,0 -2.81067,1.34938 -5.79266,2.99861 -2.98199,1.64924 -5.51385,2.99861 -5.62637,2.99861 -0.11251,0 -0.20457,-0.35933 -0.20457,-0.79852 0,-0.66925 0.97372,-1.33274 6.01507,-4.09861 4.46189,-2.44797 5.98227,-3.44875 5.88807,-3.87579 -0.0698,-0.31663 -0.30635,-0.53922 -0.52557,-0.49464 -0.21922,0.0446 -2.88543,1.19684 -5.9249,2.56058 l -5.52632,2.47953 -5.51943,-2.50259 c -3.03567,-1.37642 -5.71785,-2.58536 -5.96039,-2.68652 -0.34243,-0.14282 -0.44097,1.12209 -0.44097,5.66069 v 5.84462 l 5.73264,4.934513 c 3.15295,2.71398 5.90373,4.94276 6.11285,4.95285 0.20911,0.0101 3.02693,-2.22357 6.2618,-4.96367 z m -1.1885,-15.206903 c 2.71336,-1.20849 4.81883,-2.29787 4.67882,-2.42086 -0.14,-0.12298 -1.31906,-0.4836 -2.62011,-0.80136 -1.30106,-0.31777 -2.61075,-0.57776 -2.91042,-0.57776 -0.38843,0 -0.54486,0.35766 -0.54486,1.24579 0,0.78447 -0.19685,1.32134 -0.53159,1.44979 -0.29238,0.11219 -1.84019,-0.31896 -3.43959,-0.95813 -1.59939,-0.63916 -3.01455,-1.32039 -3.14478,-1.51383 -0.15265,-0.22674 -1.25571,-0.11901 -3.10409,0.30315 -1.57701,0.36018 -2.93249,0.76036 -3.01217,0.88929 -0.0797,0.12894 1.95215,1.19592 4.51519,2.37109 2.56305,1.17516 4.77711,2.15318 4.92015,2.17337 0.14303,0.0202 2.48009,-0.95206 5.19345,-2.16054 z m -2.88042,-4.91724 -0.10365,-2.52837 -1.76389,-0.61929 c -0.97014,-0.34061 -1.96958,-0.63159 -2.22098,-0.64663 -0.3407,-0.0204 -0.43053,0.56595 -0.35278,2.30261 l 0.10432,2.32995 1.94027,0.81431 c 1.06716,0.44787 2.0663,0.82814 2.22032,0.84505 0.15402,0.0169 0.2334,-1.10703 0.17639,-2.49763 z"
       id="path1" /></g></svg>
