<?xml version="1.0" encoding="UTF-8" standalone="no"?> <svg version="1.1" viewBox="0 0 16 16" xmlns="http://www.w3.org/2000/svg" xmlns:xlink="http://www.w3.org/1999/xlink"><g><path d="M8,0c-4.41144,0 -8,3.5885 -8,8c0,4.41144 3.58856,8 8,8c4.41144,0 8,-3.58856 8,-8c0,-4.4115 -3.58856,-8 -8,-8Zm-7,8c0,-1.75018 0.650269,-3.34839 1.71594,-4.57703l9.86108,9.86108c-1.22864,1.06567 -2.82684,1.71594 -4.57703,1.71594c-3.85968,0 -7,-3.14032 -7,-7Zm12.2841,4.57703l-9.86108,-9.86108c1.22864,-1.06567 2.82684,-1.71594 4.57703,-1.71594c3.85968,0 7,3.14032 7,7c0,1.75018 -0.650269,3.34839 -1.71594,4.57703Z"></path></g></svg>